# xmcd
#
# Track frame offsets:
#	150
#	47013
#	89170
#	134674
#	163131
#	198719
#	232285
#
# Disc length: 3308 seconds
#
# Revision: 0
# Processed by: cddbd v1.5.2PL0 Copyright (c) Steve Scherf et al.
# Submitted via: audiograbber 1.83.01
#
DISCID=6f0cea07
DTITLE=Grateful Dead - 93-06-21 Deer Creek Music Centre, Noblesville IN
DYEAR=1900
DGENRE=
TTITLE0=Corrina
TTITLE1=Drums
TTITLE2=Space
TTITLE3=The Last Time
TTITLE4=Black Peter
TTITLE5=Around and Around
TTITLE6=I Fought The Law
EXTD=
EXTT0=
EXTT1=
EXTT2=
EXTT3=
EXTT4=
EXTT5=
EXTT6=
PLAYORDER=
